<svg xmlns="http://www.w3.org/2000/svg" width="128" height="128" viewBox="0 0 128 128">
  <title>COFFEE</title>
  <path d="M89.04,32.915H86.278V31.277a5.125,5.125,0,0,0-5.118-5.119H49.17a5.125,5.125,0,0,0-5.118,5.119v1.638H41.29a1.751,1.751,0,0,0-1.75,1.75v9a1.751,1.751,0,0,0,1.75,1.75h3.026l.623,7.314h0l1.382,16.241,2.335,27.436a1.749,1.749,0,0,0,1.744,1.6H80.052a1.749,1.749,0,0,0,1.743-1.6l1.264-14.841v0L84.22,67.917l1.916-22.5h2.9a1.751,1.751,0,0,0,1.75-1.75v-9A1.751,1.751,0,0,0,89.04,32.915ZM47.552,31.277a1.62,1.62,0,0,1,1.618-1.619H81.16a1.62,1.62,0,0,1,1.618,1.619v1.638H47.552Zm33.159,36.6-1,11.79H50.744L49.78,68.337,48.588,54.332H81.864Zm-28.7,26.633-.965-11.343H79.41l-.966,11.343ZM82.162,50.832H48.29l-.461-5.417H82.623Zm5.128-8.917H43.04v-5.5H87.29Z"/>
</svg>
